<svg xmlns="http://www.w3.org/2000/svg" xmlns:xlink="http://www.w3.org/1999/xlink">

<g transform="matrix(0.30088115 0 0 0.30088115 31.94337 -0)">
    <path d="M321.07 456.77C 321.89 456.37997 322.72 456.05 323.57 455.78998C 324.36002 455.19998 325.2 454.68 326.09 454.21C 335.71 449.27 344.9 443.62 353.6 437.19C 358.37 433.66 364.62 432.72 370.2 434.78C 383.36002 439.54 385.87003 457.23 374.66 465.53C 364.3979 473.09686 353.53894 479.8189 342.19 485.63C 341.12 486.18 340.02 486.6 338.92 486.91C 338.19 487.44 337.40002 487.91 336.58002 488.32L336.58002 488.32L336.35 488.43L336.37 488.46C 278.09 516.6 213.92 518.45 157.26999 498.69998C 100.61999 478.93997 51.509987 437.58 23.369995 379.31C -4.7700043 321.03 -6.6200047 256.86 13.129995 200.20999C 32.88 143.56 74.25 94.45 132.52 66.3C 152.89 56.47 173.99 49.840004 195.25 46.22C 213.17 43.170002 231.2 42.260002 248.98 43.38L248.98 43.38L239 33.97C 231.09 26.53 230.71 14.090002 238.15 6.1900005C 245.59 -1.7199993 258.03 -2.0999994 265.93 5.3400006L265.93 5.3400006L305.83 42.95C 307.37997 44.41 308.62997 46.05 309.59998 47.81C 315.18997 55.72 314.18997 66.75 306.88998 73.5L306.88998 73.5L266.65 110.75C 258.69998 118.1 246.29999 117.62 238.94 109.67C 231.59 101.72 232.07 89.32 240.02 81.97L240.02 81.97L243.87001 78.4C 229.67001 77.72 215.31001 78.55 201.04001 80.98C 183.03001 84.04 165.13 89.670006 147.83002 98.020004C 98.30002 121.94 63.150017 163.67001 46.370018 211.79001C 29.580017 259.92 31.170017 314.46002 55.09002 364C 79.01002 413.53 120.74002 448.68 168.86002 465.46C 195.48001 474.75 224.07 478.41 252.69002 475.78C 253.35045 475.63004 254.01793 475.5132 254.69002 475.43C 257.98 475.08 261.25003 474.63 264.52002 474.13C 265.35 474.01 266.19003 473.94 267.01 473.93C 285.32 470.88998 303.5 465.22 321.06 456.74L321.06 456.74L321.07 456.77zM196.86 182.24C 196.86 172.21 204.99 164.08 215.02 164.08C 225.05 164.08 233.18001 172.21 233.18001 182.24L233.18001 182.24L233.18001 292.76L308.82 326.01C 317.99002 330.05002 322.15 340.75 318.12 349.91C 314.08 359.08002 303.38 363.24 294.21 359.2L294.21 359.2L208.62999 321.59003C 201.76 319.00003 196.85999 312.37003 196.85999 304.58002L196.85999 304.58002L196.85999 182.24zM398.65 390.9C 394.61 396.82 394.44 404.21 398.16998 410.32C 404.93997 421.04 420.38998 421.47 427.65 411.05002C 434.97 400.40002 441.22998 389.68002 446.78998 378.01C 452.94998 364.93002 441.65997 350.39 427.43997 353.14C 421.86996 354.29 417.33 357.76 414.87997 362.91C 410.16998 372.80002 404.84998 381.88 398.64996 390.9zM432.47998 300.91998C 430.83 316.65997 448.94998 326.46 461.24 316.47998C 464.86 313.44998 467.03998 309.46997 467.58 304.77C 468.99 292.11 469.34 279.37 468.66998 266.65997C 467.90997 252.08997 450.68 244.69998 439.59 254.16997C 435.38998 257.73996 433.13 263.03998 433.41998 268.53998C 433.96997 279.36996 433.68997 290.13998 432.47998 300.91998zM419.87 205.27998C 425.63 219.91998 446.27 220.27998 452.52 205.81998C 454.34998 201.52998 454.44998 196.75998 452.74 192.40997C 448.13602 180.55247 442.5708 169.09094 436.09998 158.13997C 430.03998 147.98997 416.19998 146.46997 408.02997 155.02997C 402.62997 160.85997 401.71997 169.20996 405.69998 176.08997C 411.19998 185.44997 415.93997 195.15997 419.87 205.27997zM364.32 126.52998C 376.54 136.90999 395.02002 127.19998 393.39 111.219986C 392.88 106.69999 390.79 102.76999 387.37003 99.77998C 377.68002 91.44998 367.46002 83.969986 356.56003 77.29999C 343.64 69.41999 327.41003 80.429985 329.96002 95.359985C 330.89 100.429985 333.73 104.72999 338.15002 107.429985C 347.44003 113.139984 356.05002 119.40999 364.32004 126.52998z" stroke="none" fill="#eff0f1" fill-rule="nonzero" />
</g>
</svg>